<svg xmlns="http://www.w3.org/2000/svg" viewBox="0 0 1920 1080"><defs><clipPath id="a"><path style="fill:none;stroke:#dedeff;stroke-miterlimit:10" d="M0 0h1920v1080H0z"/></clipPath></defs><g style="clip-path:url(#a)"><path d="M1375.88 136.69c1.87-.13 3.98-.25 5.79.3 2.51.77 4.79 2.58 6 4.92 1.22 2.35 1.39 5.08.56 7.59-1.21 3.64-3.61 5.28-6.93 6.87-1.92.22-3.82.26-5.68-.35-2.9-.96-5.29-2.97-6.53-5.78a9.477 9.477 0 0 1-.08-7.46c1.35-3.28 3.76-4.71 6.86-6.09ZM1607.93 249.06c1.82-.14 3.79-.28 5.57.2 2.84.76 5.41 2.85 6.75 5.45 1.24 2.41 1.48 5.19.61 7.77-1.21 3.56-3.62 5.15-6.84 6.74-1.83.35-3.72.63-5.57.24-2.57-.54-4.9-2.19-6.27-4.42-1.58-2.56-1.93-5.78-1.09-8.65 1.1-3.75 3.51-5.61 6.85-7.33ZM1747.88 126.35c1.82-.14 3.79-.28 5.57.2 2.84.76 5.41 2.85 6.75 5.45 1.24 2.41 1.48 5.19.61 7.77-1.21 3.56-3.62 5.15-6.84 6.74-1.83.35-3.72.63-5.57.24-2.57-.54-4.9-2.19-6.27-4.42-1.58-2.56-1.93-5.78-1.09-8.65 1.1-3.75 3.51-5.61 6.85-7.33ZM1507.1-37c2.13 2.35 3.6 7.26 5.08 10.21 2.48 4.95 9.8 7.17 14.66 8.91-1.76.71-3.51 1.43-5.25 2.17-7.99 3.43-11.09 8.5-14.18 16.23l-.38.35c-.98-.79-1.39-2.12-1.92-3.25-4.67-9.91-7.13-11.36-17.01-15.25 13.06-5.75 13.34-6.45 19.02-19.36ZM1885.97 91.68l-21 8.59-16.76-15.25 24.85-29.78 12.91 36.44zM1863.92 106.13l-2.58 14.41" style="fill:none;stroke:#dedeff;stroke-miterlimit:10"/><path style="fill:none;stroke:#dedeff;stroke-miterlimit:10" d="m1884.92 97.53-21 8.6-16.76-15.26 14.18 29.67 23.58-23.01z"/><path style="fill:none;stroke:#dedeff;stroke-miterlimit:10" d="m1885.97 91.68-21 8.59-16.76-15.25 20.48-5.46 17.28 12.12zM1864.97 100.27l8.09-45.03"/><path style="fill:none;stroke:#dedeff;stroke-miterlimit:10" d="m1885.97 91.68-21 8.59-16.76-15.25 24.85-29.78 12.91 36.44zM1864.46 764.33c1.56-.2 3.34-.36 4.9-.13 2.74.4 5.46 2.1 6.96 4.44 1.41 2.19 1.8 4.88 1.18 7.39-.94 3.86-3.31 5.61-6.55 7.53-1.67.45-3.28.69-4.99.31-2.6-.59-4.92-2.18-6.34-4.45-1.6-2.57-2.02-5.78-1.16-8.68 1.02-3.4 2.99-4.79 6-6.41ZM1375.88 997.32c1.87-.13 3.98-.25 5.79.3 2.51.77 4.79 2.58 6 4.92 1.22 2.35 1.39 5.08.56 7.59-1.21 3.64-3.61 5.28-6.93 6.87-1.92.22-3.82.26-5.68-.35-2.9-.96-5.29-2.97-6.53-5.78a9.477 9.477 0 0 1-.08-7.46c1.35-3.28 3.76-4.71 6.86-6.09ZM1423.79 541.72c1.67-.14 3.49-.21 5.11.25 2.9.83 5.48 2.78 6.85 5.49a9.99 9.99 0 0 1 .55 7.73c-1.25 3.62-3.85 5.35-7.18 6.9-1.56.18-3.31.29-4.85-.07-2.88-.68-5.45-2.62-6.83-5.24-1.3-2.46-1.51-5.3-.64-7.93 1.2-3.63 3.72-5.45 6.99-7.13ZM1671.82 460.31c1.83.07 3.59.27 5.25 1.1 2.74 1.37 4.78 3.77 5.57 6.75.7 2.66.35 5.53-1.05 7.9-1.84 3.09-4.57 4.38-7.95 5.13-2.06-.14-3.95-.37-5.8-1.36-2.63-1.4-4.57-3.79-5.28-6.7-.66-2.71-.23-5.53 1.24-7.9 1.96-3.16 4.55-4.12 8.03-4.92ZM1747.88 986.99c1.82-.14 3.79-.28 5.57.2 2.84.76 5.41 2.85 6.75 5.45 1.24 2.41 1.48 5.19.61 7.77-1.21 3.56-3.62 5.15-6.84 6.74-1.83.35-3.72.63-5.57.24-2.57-.54-4.9-2.19-6.27-4.42-1.58-2.56-1.93-5.78-1.09-8.65 1.1-3.75 3.51-5.61 6.85-7.33ZM1507.1 823.63c2.13 2.35 3.6 7.26 5.08 10.21 2.48 4.95 9.8 7.17 14.66 8.91-1.76.71-3.51 1.43-5.25 2.17-7.99 3.43-11.09 8.5-14.18 16.23l-.38.35c-.98-.79-1.39-2.12-1.92-3.25-4.67-9.91-7.13-11.36-17.01-15.25 13.06-5.75 13.34-6.45 19.02-19.36ZM1571.61 391.54c2.12 2.02 3.6 6 4.96 8.62 10.69 20.69 12.25 22.84 34.44 32.05l-4.21 1.93c-17.99 8.44-27.19 17.75-33.98 36.6-1.85.27-8.93-14.98-10.65-17.81-6.34-10.4-17.04-15.4-27.74-20.07 21.15-11.88 28.14-17.74 37.19-41.33ZM1920.68 541.62c1.92 1.7 2.96 4.6 4.11 6.86 4.91 9.7 10.9 11.7 19.81 16.7-2.59 1.65-5.53 2.84-8.23 4.32-8.34 4.58-11.16 11.03-15.03 19.18l-.32.36c-2.32-.94-4.13-8.87-5.54-11.29-3.48-5.98-8.52-8.01-14.21-11.16-.59-.33-.91-.7-1.26-1.27.92-2.84 10.71-6.98 13.51-10.05 3.45-3.8 5.2-8.97 7.17-13.64ZM1695.4 686.33l-22.78 24.25-31.65-10.15 15.03-54.84 39.4 40.74zM1674.78 719.03l5.32 20.8"/><path style="fill:none;stroke:#dedeff;stroke-miterlimit:10" d="m1697.56 694.78-22.78 24.25-31.64-10.15 36.96 30.95 17.46-45.05z"/><path style="fill:none;stroke:#dedeff;stroke-miterlimit:10" d="m1695.4 686.33-22.78 24.25-31.65-10.15 24-19.75 30.43 5.65zM1672.62 710.58 1656 645.59"/><path style="fill:none;stroke:#dedeff;stroke-miterlimit:10" d="m1695.4 686.33-22.78 24.25-31.65-10.15 15.03-54.84 39.4 40.74zM1885.97 952.31l-21 8.6-16.76-15.26 24.85-29.78 12.91 36.44zM1863.92 966.76l-2.58 14.41"/><path style="fill:none;stroke:#dedeff;stroke-miterlimit:10" d="m1884.92 958.16-21 8.6-16.76-15.26 14.18 29.67 23.58-23.01z"/><path style="fill:none;stroke:#dedeff;stroke-miterlimit:10" d="m1885.97 952.31-21 8.6-16.76-15.26 20.48-5.46 17.28 12.12zM1864.97 960.91l8.09-45.04"/><path style="fill:none;stroke:#dedeff;stroke-miterlimit:10" d="m1885.97 952.31-21 8.6-16.76-15.26 24.85-29.78 12.91 36.44zM1607.93 249.06c1.82-.14 3.79-.28 5.57.2 2.84.76 5.41 2.85 6.75 5.45 1.24 2.41 1.48 5.19.61 7.77-1.21 3.56-3.62 5.15-6.84 6.74-1.83.35-3.72.63-5.57.24-2.57-.54-4.9-2.19-6.27-4.42-1.58-2.56-1.93-5.78-1.09-8.65 1.1-3.75 3.51-5.61 6.85-7.33ZM1280.16 317.05l-33.47 17.97-30.57-22.48 36.19-53.91 27.85 58.42zM1246.69 335.02l5.62-76.39"/><path style="fill:none;stroke:#dedeff;stroke-miterlimit:10" d="m1280.16 317.05-33.47 17.97-30.57-22.48 36.19-53.91 27.85 58.42zM1250.9.86c1.38.04 2.87.11 4.2.51 2.77.83 5.27 2.92 6.48 5.55a9.74 9.74 0 0 1 .11 7.88c-1.51 3.54-4.22 4.92-7.64 6.28-2.1.19-3.92.14-5.88-.73-2.64-1.16-4.62-3.29-5.52-6.04-.85-2.59-.64-5.47.62-7.89 1.65-3.19 4.34-4.53 7.63-5.57ZM535.94 136.69c1.87-.13 3.98-.25 5.79.3 2.51.77 4.79 2.58 6 4.92 1.22 2.35 1.39 5.08.56 7.59-1.21 3.64-3.61 5.28-6.93 6.87-1.92.22-3.82.26-5.68-.35-2.9-.96-5.29-2.97-6.53-5.78a9.477 9.477 0 0 1-.08-7.46c1.35-3.28 3.76-4.71 6.86-6.09ZM767.99 249.06c1.82-.14 3.79-.28 5.57.2 2.84.76 5.41 2.85 6.75 5.45 1.24 2.41 1.48 5.19.61 7.77-1.21 3.56-3.62 5.15-6.84 6.74-1.83.35-3.72.63-5.57.24-2.57-.54-4.9-2.19-6.27-4.42-1.58-2.56-1.93-5.78-1.09-8.65 1.1-3.75 3.51-5.61 6.85-7.33ZM907.95 126.35c1.82-.14 3.79-.28 5.57.2 2.84.76 5.41 2.85 6.75 5.45 1.24 2.41 1.48 5.19.61 7.77-1.21 3.56-3.62 5.15-6.84 6.74-1.83.35-3.72.63-5.57.24-2.57-.54-4.9-2.19-6.27-4.42-1.58-2.56-1.93-5.78-1.09-8.65 1.1-3.75 3.51-5.61 6.85-7.33ZM1097.06 223.59c.98 1 1.47 2.63 2.05 3.9 3.64 7.93 5.35 8.58 13.08 12.54-8.59 4.53-10.9 6.93-14.75 15.88-1.07-1.02-1.86-3.11-2.58-4.43-3.41-6.19-6.36-8.06-12.5-11.33 8.16-4.93 10.75-7.88 14.7-16.56ZM667.17-37c2.13 2.35 3.6 7.26 5.08 10.21 2.48 4.95 9.8 7.17 14.66 8.91-1.76.71-3.51 1.43-5.25 2.17-7.99 3.43-11.09 8.5-14.18 16.23l-.38.35c-.98-.79-1.39-2.12-1.92-3.25-4.67-9.91-7.13-11.36-17.01-15.25 13.06-5.75 13.34-6.45 19.02-19.36ZM1046.04 91.68l-21 8.59-16.77-15.25 24.85-29.78 12.92 36.44zM1023.99 106.13l-2.59 14.41"/><path style="fill:none;stroke:#dedeff;stroke-miterlimit:10" d="m1044.99 97.53-21 8.6-16.77-15.26 14.18 29.67 23.59-23.01z"/><path style="fill:none;stroke:#dedeff;stroke-miterlimit:10" d="m1046.04 91.68-21 8.59-16.77-15.25 20.49-5.46 17.28 12.12zM1025.04 100.27l8.08-45.03"/><path style="fill:none;stroke:#dedeff;stroke-miterlimit:10" d="m1046.04 91.68-21 8.59-16.77-15.25 24.85-29.78 12.92 36.44zM1024.52 764.33c1.56-.2 3.34-.36 4.9-.13 2.74.4 5.46 2.1 6.96 4.44 1.41 2.19 1.8 4.88 1.18 7.39-.94 3.86-3.31 5.61-6.55 7.53-1.67.45-3.28.69-4.99.31-2.6-.59-4.92-2.18-6.34-4.45-1.6-2.57-2.02-5.78-1.16-8.68 1.02-3.4 2.99-4.79 6-6.41ZM1250.9 861.5c1.38.04 2.87.11 4.2.51 2.77.83 5.27 2.92 6.48 5.55a9.74 9.74 0 0 1 .11 7.88c-1.51 3.54-4.22 4.92-7.64 6.28-2.1.19-3.92.14-5.88-.73-2.64-1.16-4.62-3.29-5.52-6.04-.85-2.59-.64-5.47.62-7.89 1.65-3.19 4.34-4.53 7.63-5.57ZM535.94 997.32c1.87-.13 3.98-.25 5.79.3 2.51.77 4.79 2.58 6 4.92 1.22 2.35 1.39 5.08.56 7.59-1.21 3.64-3.61 5.28-6.93 6.87-1.92.22-3.82.26-5.68-.35-2.9-.96-5.29-2.97-6.53-5.78a9.477 9.477 0 0 1-.08-7.46c1.35-3.28 3.76-4.71 6.86-6.09ZM1301.86 680.45c1.91-.13 3.83-.29 5.63.47 2.5 1.05 4.5 3.09 5.53 5.59 1.03 2.48 1.02 5.31-.09 7.77-1.37 3.04-3.82 4.42-6.81 5.57-1.49.04-3.02.1-4.48-.29-2.55-.69-4.9-2.38-6.2-4.7-1.27-2.26-1.51-4.96-.74-7.42 1.19-3.76 3.78-5.34 7.15-6.98ZM583.85 541.72c1.67-.14 3.49-.21 5.11.25 2.9.83 5.48 2.78 6.85 5.49a9.99 9.99 0 0 1 .55 7.73c-1.25 3.62-3.85 5.35-7.18 6.9-1.56.18-3.31.29-4.85-.07-2.88-.68-5.45-2.62-6.83-5.24-1.3-2.46-1.51-5.3-.64-7.93 1.2-3.63 3.72-5.45 6.99-7.13ZM1142.85 381.1c1.83.07 3.59.27 5.25 1.1 2.74 1.37 4.78 3.77 5.57 6.75.7 2.66.35 5.53-1.05 7.9-1.84 3.09-4.57 4.38-7.95 5.13-2.06-.14-3.95-.37-5.8-1.36-2.63-1.4-4.57-3.79-5.28-6.7-.66-2.71-.23-5.53 1.24-7.9 1.96-3.16 4.55-4.12 8.03-4.92ZM831.88 460.31c1.83.07 3.59.27 5.25 1.1 2.74 1.37 4.78 3.77 5.57 6.75.7 2.66.35 5.53-1.05 7.9-1.84 3.09-4.57 4.38-7.95 5.13-2.06-.14-3.95-.37-5.8-1.36-2.63-1.4-4.57-3.79-5.28-6.7-.66-2.71-.23-5.53 1.24-7.9 1.96-3.16 4.55-4.12 8.03-4.92ZM907.95 986.99c1.82-.14 3.79-.28 5.57.2 2.84.76 5.41 2.85 6.75 5.45 1.24 2.41 1.48 5.19.61 7.77-1.21 3.56-3.62 5.15-6.84 6.74-1.83.35-3.72.63-5.57.24-2.57-.54-4.9-2.19-6.27-4.42-1.58-2.56-1.93-5.78-1.09-8.65 1.1-3.75 3.51-5.61 6.85-7.33ZM667.17 823.63c2.13 2.35 3.6 7.26 5.08 10.21 2.48 4.95 9.8 7.17 14.66 8.91-1.76.71-3.51 1.43-5.25 2.17-7.99 3.43-11.09 8.5-14.18 16.23l-.38.35c-.98-.79-1.39-2.12-1.92-3.25-4.67-9.91-7.13-11.36-17.01-15.25 13.06-5.75 13.34-6.45 19.02-19.36ZM731.67 391.54c2.12 2.02 3.6 6 4.96 8.62 10.69 20.69 12.25 22.84 34.44 32.05l-4.21 1.93c-17.99 8.44-27.19 17.75-33.98 36.6-1.85.27-8.93-14.98-10.65-17.81-6.34-10.4-17.04-15.4-27.74-20.07 21.15-11.88 28.14-17.74 37.19-41.33ZM1080.74 541.62c1.92 1.7 2.96 4.6 4.11 6.86 4.91 9.7 10.9 11.7 19.81 16.7-2.59 1.65-5.53 2.84-8.23 4.32-8.34 4.58-11.16 11.03-15.03 19.18l-.32.36c-2.32-.94-4.13-8.87-5.54-11.29-3.48-5.98-8.52-8.01-14.21-11.16-.59-.33-.91-.7-1.26-1.27.92-2.84 10.71-6.98 13.51-10.05 3.45-3.8 5.2-8.97 7.17-13.64ZM855.46 686.33l-22.78 24.25-31.64-10.15 15.02-54.84 39.4 40.74zM834.84 719.03l5.32 20.8"/><path style="fill:none;stroke:#dedeff;stroke-miterlimit:10" d="m857.62 694.78-22.78 24.25-31.64-10.15 36.96 30.95 17.46-45.05z"/><path style="fill:none;stroke:#dedeff;stroke-miterlimit:10" d="m855.46 686.33-22.78 24.25-31.64-10.15 24-19.75 30.42 5.65zM832.68 710.58l-16.62-64.99"/><path style="fill:none;stroke:#dedeff;stroke-miterlimit:10" d="m855.46 686.33-22.78 24.25-31.64-10.15 15.02-54.84 39.4 40.74zM1046.04 952.31l-21 8.6-16.77-15.26 24.85-29.78 12.92 36.44zM1023.99 966.76l-2.59 14.41"/><path style="fill:none;stroke:#dedeff;stroke-miterlimit:10" d="m1044.99 958.16-21 8.6-16.77-15.26 14.18 29.67 23.59-23.01z"/><path style="fill:none;stroke:#dedeff;stroke-miterlimit:10" d="m1046.04 952.31-21 8.6-16.77-15.26 20.49-5.46 17.28 12.12zM1025.04 960.91l8.08-45.04"/><path style="fill:none;stroke:#dedeff;stroke-miterlimit:10" d="m1046.04 952.31-21 8.6-16.77-15.26 24.85-29.78 12.92 36.44zM1280.16 317.05l-33.47 17.97-30.57-22.48 36.19-53.91 27.85 58.42zM1245.96 344.95l-1.79 24.45"/><path style="fill:none;stroke:#dedeff;stroke-miterlimit:10" d="m1279.43 326.98-33.47 17.97-30.57-22.48 28.78 46.93 35.26-42.42z"/><path style="fill:none;stroke:#dedeff;stroke-miterlimit:10" d="m1280.16 317.05-33.47 17.97-30.57-22.48 33.16-12.66 30.88 17.17zM1246.69 335.02l5.62-76.39"/><path style="fill:none;stroke:#dedeff;stroke-miterlimit:10" d="m1280.16 317.05-33.47 17.97-30.57-22.48 36.19-53.91 27.85 58.42zM767.99 249.06c1.82-.14 3.79-.28 5.57.2 2.84.76 5.41 2.85 6.75 5.45 1.24 2.41 1.48 5.19.61 7.77-1.21 3.56-3.62 5.15-6.84 6.74-1.83.35-3.72.63-5.57.24-2.57-.54-4.9-2.19-6.27-4.42-1.58-2.56-1.93-5.78-1.09-8.65 1.1-3.75 3.51-5.61 6.85-7.33ZM440.22 317.05l-33.46 17.97-30.57-22.48 36.18-53.91 27.85 58.42zM406.76 335.02l5.61-76.39"/><path style="fill:none;stroke:#dedeff;stroke-miterlimit:10" d="m440.22 317.05-33.46 17.97-30.57-22.48 36.18-53.91 27.85 58.42zM410.97.86c1.38.04 2.87.11 4.2.51 2.77.83 5.27 2.92 6.48 5.55a9.74 9.74 0 0 1 .11 7.88c-1.51 3.54-4.22 4.92-7.64 6.28-2.1.19-3.92.14-5.88-.73-2.64-1.16-4.62-3.29-5.52-6.04-.85-2.59-.64-5.47.62-7.89 1.65-3.19 4.34-4.53 7.63-5.57ZM68.01 126.35c1.82-.14 3.79-.28 5.57.2 2.84.76 5.41 2.85 6.75 5.45 1.24 2.41 1.48 5.19.61 7.77-1.21 3.56-3.62 5.15-6.84 6.74-1.83.35-3.72.63-5.57.24-2.57-.54-4.9-2.19-6.27-4.42-1.58-2.56-1.93-5.78-1.09-8.65 1.1-3.75 3.51-5.61 6.85-7.33ZM257.12 223.59c.98 1 1.47 2.63 2.05 3.9 3.64 7.93 5.35 8.58 13.08 12.54-8.59 4.53-10.9 6.93-14.75 15.88-1.07-1.02-1.86-3.11-2.58-4.43-3.41-6.19-6.36-8.06-12.5-11.33 8.16-4.93 10.75-7.88 14.7-16.56ZM206.1 91.68l-21 8.59-16.76-15.25 24.84-29.78 12.92 36.44zM184.05 106.13l-2.58 14.41"/><path style="fill:none;stroke:#dedeff;stroke-miterlimit:10" d="m205.05 97.53-21 8.6-16.76-15.26 14.18 29.67 23.58-23.01z"/><path style="fill:none;stroke:#dedeff;stroke-miterlimit:10" d="m206.1 91.68-21 8.59-16.76-15.25 20.48-5.46 17.28 12.12zM185.1 100.27l8.08-45.03"/><path style="fill:none;stroke:#dedeff;stroke-miterlimit:10" d="m206.1 91.68-21 8.59-16.76-15.25 24.84-29.78 12.92 36.44zM184.59 764.33c1.56-.2 3.34-.36 4.9-.13 2.74.4 5.46 2.1 6.96 4.44 1.41 2.19 1.8 4.88 1.18 7.39-.94 3.86-3.31 5.61-6.55 7.53-1.67.45-3.28.69-4.99.31-2.6-.59-4.92-2.18-6.34-4.45-1.6-2.57-2.02-5.78-1.16-8.68 1.02-3.4 2.99-4.79 6-6.41ZM410.97 861.5c1.38.04 2.87.11 4.2.51 2.77.83 5.27 2.92 6.48 5.55a9.74 9.74 0 0 1 .11 7.88c-1.51 3.54-4.22 4.92-7.64 6.28-2.1.19-3.92.14-5.88-.73-2.64-1.16-4.62-3.29-5.52-6.04-.85-2.59-.64-5.47.62-7.89 1.65-3.19 4.34-4.53 7.63-5.57ZM461.93 680.45c1.91-.13 3.83-.29 5.63.47 2.5 1.05 4.5 3.09 5.53 5.59 1.03 2.48 1.02 5.31-.09 7.77-1.37 3.04-3.82 4.42-6.81 5.57-1.49.04-3.02.1-4.48-.29-2.55-.69-4.9-2.38-6.2-4.7-1.27-2.26-1.51-4.96-.74-7.42 1.19-3.76 3.78-5.34 7.15-6.98ZM302.92 381.1c1.83.07 3.59.27 5.25 1.1 2.74 1.37 4.78 3.77 5.57 6.75.7 2.66.35 5.53-1.05 7.9-1.84 3.09-4.57 4.38-7.95 5.13-2.06-.14-3.95-.37-5.8-1.36-2.63-1.4-4.57-3.79-5.28-6.7-.66-2.71-.23-5.53 1.24-7.9 1.96-3.16 4.55-4.12 8.03-4.92ZM-8.05 460.31c1.83.07 3.59.27 5.25 1.1 2.74 1.37 4.78 3.77 5.57 6.75.7 2.66.35 5.53-1.05 7.9-1.84 3.09-4.57 4.38-7.95 5.13-2.06-.14-3.95-.37-5.8-1.36-2.63-1.4-4.57-3.79-5.28-6.7-.66-2.71-.23-5.53 1.24-7.9 1.96-3.16 4.55-4.12 8.03-4.92ZM68.01 986.99c1.82-.14 3.79-.28 5.57.2 2.84.76 5.41 2.85 6.75 5.45 1.24 2.41 1.48 5.19.61 7.77-1.21 3.56-3.62 5.15-6.84 6.74-1.83.35-3.72.63-5.57.24-2.57-.54-4.9-2.19-6.27-4.42-1.58-2.56-1.93-5.78-1.09-8.65 1.1-3.75 3.51-5.61 6.85-7.33ZM240.8 541.62c1.92 1.7 2.96 4.6 4.11 6.86 4.91 9.7 10.9 11.7 19.81 16.7-2.59 1.65-5.53 2.84-8.23 4.32-8.34 4.58-11.16 11.03-15.03 19.18l-.32.36c-2.32-.94-4.13-8.87-5.54-11.29-3.48-5.98-8.52-8.01-14.21-11.16-.59-.33-.91-.7-1.26-1.27.92-2.84 10.71-6.98 13.51-10.05 3.45-3.8 5.2-8.97 7.17-13.64ZM15.52 686.33l-22.77 24.25-31.65-10.15 15.02-54.84 39.4 40.74zM-5.09 719.03l5.32 20.8"/><path style="fill:none;stroke:#dedeff;stroke-miterlimit:10" d="m17.69 694.78-22.78 24.25-31.65-10.15L.23 739.83l17.46-45.05z"/><path style="fill:none;stroke:#dedeff;stroke-miterlimit:10" d="m15.52 686.33-22.77 24.25-31.65-10.15 24-19.75 30.42 5.65z"/><path style="fill:none;stroke:#dedeff;stroke-miterlimit:10" d="m15.52 686.33-22.77 24.25-31.65-10.15 15.02-54.84 39.4 40.74zM206.1 952.31l-21 8.6-16.76-15.26 24.84-29.78 12.92 36.44zM184.05 966.76l-2.58 14.41"/><path style="fill:none;stroke:#dedeff;stroke-miterlimit:10" d="m205.05 958.16-21 8.6-16.76-15.26 14.18 29.67 23.58-23.01z"/><path style="fill:none;stroke:#dedeff;stroke-miterlimit:10" d="m206.1 952.31-21 8.6-16.76-15.26 20.48-5.46 17.28 12.12zM185.1 960.91l8.08-45.04"/><path style="fill:none;stroke:#dedeff;stroke-miterlimit:10" d="m206.1 952.31-21 8.6-16.76-15.26 24.84-29.78 12.92 36.44zM440.22 317.05l-33.46 17.97-30.57-22.48 36.18-53.91 27.85 58.42zM406.03 344.95l-1.8 24.45"/><path style="fill:none;stroke:#dedeff;stroke-miterlimit:10" d="m439.49 326.98-33.46 17.97-30.57-22.48 28.77 46.93 35.26-42.42z"/><path style="fill:none;stroke:#dedeff;stroke-miterlimit:10" d="m440.22 317.05-33.46 17.97-30.57-22.48 33.15-12.66 30.88 17.17zM406.76 335.02l5.61-76.39"/><path style="fill:none;stroke:#dedeff;stroke-miterlimit:10" d="m440.22 317.05-33.46 17.97-30.57-22.48 36.18-53.91 27.85 58.42z"/></g><path style="fill:none;stroke:#dedeff;stroke-miterlimit:10" d="M0 0h1920v1080H0z"/></svg>